<svg xmlns="http://www.w3.org/2000/svg" width="800px" height="800px" viewBox="0 0 1024 1024" version="1.1"><path d="M512 0C229.2 0 0 229.2 0 512c0 90.6 23.5 175.7 64.9 249.7L0 1024l268.4-63.5C340.6 996.9 423.7 1024 512 1024c282.8 0 512-229.2 512-512S794.8 0 512 0z" fill="#4CAF50"/><path d="M512 85.3c-235.6 0-426.7 191.1-426.7 426.7 0 85.3 25.1 165.1 68.3 232L128 853.3l111.4-26.2c65 41.2 141.2 64.9 223.9 64.9 235.6 0 426.7-191.1 426.7-426.7S747.6 85.3 512 85.3z" fill="#FCFCFC"/><path d="M434.7 348.6c-8.9-19.9-18.4-20.2-27.1-20.6-7-0.3-15.1-0.3-23.2-0.3-8.1 0-21.3 3-32.4 15.1-11.1 12.1-42.3 41.3-42.3 100.8s43.3 116.9 49.3 125.1c6 8.1 85.3 130.2 206.5 182.7 100.8 43.6 121.3 34.9 143.6 32.9s72.3-29.6 82.4-58.1c10.1-28.5 10.1-52.9 7-58.1-3-5.2-11.1-8.3-23.2-14.3s-72.3-35.6-83.4-39.7c-11.1-4.1-19.2-6-27.1 6-7.9 12.1-30.8 39.7-37.7 47.9-6.9 8.1-13.8 9.2-25.9 3.2s-51-18.8-97.1-59.9c-35.9-32-60.2-71.5-67.2-83.6s-0.7-18.7 5.3-24.7c5.4-5.4 12.1-14.1 18.2-21.2 6-7.1 8.1-12.1 12.1-20.1 4-8.1 2-15.1-1-21.2s-26.6-63.7-36.5-85.9z" fill="#4CAF50"/></svg>